<svg version="1.1" id="Layer_1" xmlns="http://www.w3.org/2000/svg" xmlns:xlink="http://www.w3.org/1999/xlink" x="0px" y="0px"
	 width="100%" viewBox="0 0 732 441" enable-background="new 0 0 732 441" xml:space="preserve">
<path fill="#FFFFFF" opacity="1.000000" stroke="none" 
	d="
M489.000000,442.000000 
	C327.500000,442.000000 166.499985,441.984802 5.500063,442.093903 
	C1.750655,442.096436 0.903042,441.249390 0.905933,437.499939 
	C1.016975,293.500000 1.016975,149.499985 0.905933,5.500072 
	C0.903042,1.750594 1.750816,0.905003 5.500040,0.906614 
	C246.500000,1.010173 487.500000,1.010173 728.499939,0.906614 
	C732.249207,0.905003 733.096985,1.750594 733.094116,5.500072 
	C732.983032,149.499985 732.983032,293.500000 733.094055,437.499939 
	C733.096985,441.249390 732.249939,442.101288 728.499878,442.095367 
	C648.833374,441.969513 569.166687,442.000000 489.000000,442.000000 
z"/>
<path fill="#9B6F33" opacity="1.000000" stroke="none" 
	d="
M328.693115,161.436707 
	C332.362122,161.000092 335.727325,160.946335 339.544495,160.974670 
	C341.752289,162.966629 341.599854,165.364807 341.600983,167.678085 
	C341.634186,235.459671 341.633301,303.241241 341.606049,371.022827 
	C341.605255,373.016357 341.644775,375.035187 340.317749,377.244537 
	C331.495728,377.646942 323.016144,377.683350 314.327393,377.355042 
	C315.989258,375.297760 318.287750,375.526947 321.025940,375.544220 
	C327.335907,374.680481 327.381165,374.680511 327.383728,367.563202 
	C327.401886,317.088226 327.391418,266.613251 327.393066,216.138290 
	C327.393585,200.479385 327.376862,184.820465 327.408722,169.161621 
	C327.413757,166.683197 327.126495,164.140778 328.693115,161.436707 
z"/>
<path fill="#A88142" opacity="1.000000" stroke="none" 
	d="
M360.313660,377.259583 
	C356.611572,377.683624 353.248474,377.748474 349.435974,377.716309 
	C347.142059,375.735992 347.406738,373.308685 347.405334,371.015991 
	C347.364441,303.235687 347.366974,235.455368 347.394226,167.675049 
	C347.395050,165.683243 347.337280,163.660385 348.685791,161.441010 
	C352.361542,160.998108 355.726440,160.947067 359.544067,160.973221 
	C360.965057,162.067001 361.446259,163.330368 361.445496,164.681137 
	C361.438354,177.145706 362.235687,189.620361 360.838654,202.525848 
	C358.678711,205.122742 358.601624,207.798294 358.599854,210.473465 
	C358.574280,249.111618 358.579102,287.749786 358.596985,326.387939 
	C358.598053,328.725830 358.620270,331.074493 360.401855,333.482269 
	C361.583282,335.924896 361.574982,338.091248 361.580963,340.244904 
	C361.609467,350.520172 361.611237,360.795532 361.578796,371.070801 
	C361.572571,373.054169 361.631165,375.064087 360.313660,377.259583 
z"/>
<path fill="#A2783A" opacity="1.000000" stroke="none" 
	d="
M348.552063,160.970337 
	C348.994293,232.944199 348.991974,304.839233 348.988098,377.176819 
	C346.277832,377.681335 343.569092,377.743347 340.417847,377.707947 
	C339.983063,305.735718 339.990845,233.860931 339.997559,161.521423 
	C342.700134,161.001663 345.403809,160.946594 348.552063,160.970337 
z"/>
<path fill="#D8C47A" opacity="1.000000" stroke="none" 
	d="
M430.729004,180.160004 
	C435.694611,182.446152 439.888306,185.646744 443.792145,189.715759 
	C443.202301,222.131454 443.768921,254.253525 443.624481,286.373260 
	C443.542114,304.681915 443.618134,322.991211 443.601044,341.300232 
	C443.598572,343.951080 443.840271,346.651276 442.234436,349.539185 
	C439.645691,353.480560 435.802246,355.161072 432.293518,357.736267 
	C429.046021,355.768768 429.491302,352.601318 429.475067,349.693665 
	C429.380859,332.818726 429.474152,315.943207 429.408112,299.068024 
	C429.401703,297.430420 429.704498,295.747131 428.687927,293.772522 
	C428.100525,292.216583 428.091461,291.044342 428.358643,289.901733 
	C431.679504,275.700012 431.413269,261.522644 428.138763,247.355652 
	C427.836090,246.046066 427.827454,244.713394 428.295135,242.951294 
	C429.867828,239.870514 429.369141,236.985458 429.382172,234.207870 
	C429.454773,218.751297 429.399963,203.294220 429.431213,187.837387 
	C429.436218,185.363007 429.164520,182.829300 430.729004,180.160004 
z"/>
<path fill="#E4D487" opacity="1.000000" stroke="none" 
	d="
M535.282715,359.037506 
	C531.030151,357.478455 527.976318,354.716309 524.937256,351.414764 
	C524.445374,348.482269 524.372131,345.830811 524.373230,343.165710 
	C524.394409,293.389282 524.393677,243.612885 524.385864,193.836472 
	C524.385559,191.841080 524.255859,189.837723 524.768616,187.381943 
	C528.212036,182.478607 532.950989,179.652008 537.714600,176.381622 
	C539.371338,177.548080 539.512573,179.242432 539.516541,180.901093 
	C539.559692,199.041107 539.764648,217.181534 539.263916,235.770584 
	C537.397888,242.603165 534.350159,248.487000 532.732605,254.943588 
	C529.381897,268.318085 531.032654,281.100800 535.836609,293.721619 
	C536.425598,295.268921 537.090515,296.787323 537.799683,298.670349 
	C537.195312,314.453918 537.750183,329.894501 537.573486,345.330261 
	C537.543091,347.988922 537.629944,350.649536 537.513733,353.306396 
	C537.426514,355.301483 537.353882,357.325439 535.282715,359.037506 
z"/>
<path fill="#95672C" opacity="1.000000" stroke="none" 
	d="
M328.558746,160.969955 
	C328.997925,230.764923 328.999207,300.476013 328.999664,370.187103 
	C328.999695,377.012726 328.997345,377.012726 321.417480,376.928345 
	C319.202606,374.993408 319.400269,372.588654 319.399078,370.285004 
	C319.363861,302.748260 319.364746,235.211517 319.392670,167.674774 
	C319.393494,165.685120 319.338226,163.664871 320.685181,161.447739 
	C323.371979,160.999664 325.746307,160.942871 328.558746,160.969955 
z"/>
<path fill="#F8F09E" opacity="1.000000" stroke="none" 
	d="
M504.446350,327.009125 
	C495.003174,314.648956 490.387878,300.548096 488.128937,285.671112 
	C485.241455,266.654877 487.221313,248.024811 493.933350,229.964966 
	C496.542450,222.944778 500.114014,216.401413 504.631836,210.029816 
	C507.490082,212.265732 507.517700,215.527451 507.529907,218.644180 
	C507.661926,252.373474 507.632782,286.103119 507.553009,319.832550 
	C507.546753,322.476196 507.528046,325.232727 504.446350,327.009125 
z"/>
<path fill="#F1E695" opacity="1.000000" stroke="none" 
	d="
M504.075745,327.347107 
	C506.037567,325.367676 506.008484,323.042572 506.007599,320.686157 
	C505.994781,286.645447 506.021118,252.604660 505.954681,218.564072 
	C505.949585,215.951401 505.318542,213.339935 504.948364,210.283173 
	C507.180939,205.021347 510.546692,201.016968 514.489502,197.057953 
	C517.586853,196.662628 517.969849,198.779510 518.355103,200.747070 
	C518.739990,202.712936 518.610229,204.730682 518.610413,206.728333 
	C518.615356,248.363663 518.625854,289.998993 518.593201,331.634308 
	C518.590332,335.261047 519.049377,339.014893 516.398804,342.600952 
	C511.121857,338.582825 507.738220,333.064850 504.075745,327.347107 
z"/>
<path fill="#916127" opacity="1.000000" stroke="none" 
	d="
M320.546265,160.969040 
	C320.995636,232.700241 320.993622,304.344025 320.979004,376.446045 
	C318.968903,376.928955 316.971313,376.953674 314.545959,376.984375 
	C314.023438,375.002777 313.846313,373.015289 313.845886,371.027740 
	C313.831543,303.096436 313.833832,235.165131 313.834167,167.233826 
	C313.834198,160.808197 313.835571,160.808197 320.546265,160.969040 
z"/>
<path fill="#EADD8E" opacity="1.000000" stroke="none" 
	d="
M516.159058,343.234253 
	C517.291870,338.210541 516.996765,333.386292 516.997314,328.584747 
	C517.002014,286.813141 517.008667,245.041519 516.974121,203.269928 
	C516.972412,201.200958 517.705078,198.857666 515.145203,197.082642 
	C516.892395,192.658539 520.763062,190.139847 524.498657,187.052124 
	C526.502258,188.060944 525.981262,189.863708 525.981934,191.455963 
	C526.003845,243.199661 526.001770,294.943390 525.990356,346.687103 
	C525.990051,347.996246 526.247498,349.363342 525.098755,350.847473 
	C521.373108,349.227295 518.816284,346.405304 516.159058,343.234253 
z"/>
<path fill="#DECC80" opacity="1.000000" stroke="none" 
	d="
M442.293091,349.837830 
	C441.990356,298.549866 441.983582,247.136078 442.047119,195.722397 
	C442.049408,193.876984 441.075226,191.683273 443.546570,190.104523 
	C447.350006,192.007584 449.297180,195.397598 451.948547,198.556320 
	C452.543793,200.637589 452.659454,202.445999 452.654938,204.288010 
	C452.550354,247.015121 452.625763,289.742340 452.603943,332.469513 
	C452.602844,334.628204 452.730652,336.795349 452.064575,339.390228 
	C449.349945,343.653107 445.957886,346.666107 442.293091,349.837830 
z"/>
<path fill="#BE9F5B" opacity="1.000000" stroke="none" 
	d="
M368.697144,161.417587 
	C379.362274,160.165024 389.360046,162.199203 399.630432,165.022583 
	C401.268677,166.456802 401.501770,168.108765 401.517548,169.779221 
	C401.630402,181.716599 401.647156,193.654358 401.509613,205.591705 
	C401.494232,206.923904 401.263947,208.233948 400.314819,209.794083 
	C398.648346,211.083725 397.120819,211.014862 395.728302,210.475357 
	C388.104034,207.521393 380.098969,206.418686 372.064270,205.417374 
	C370.914032,205.274017 369.797821,204.948792 368.554382,203.863892 
	C367.130951,200.955414 367.428284,198.257553 367.418396,195.611038 
	C367.384094,186.454834 367.383545,177.298370 367.419281,168.142136 
	C367.427673,165.989700 367.270660,163.792633 368.697144,161.417587 
z"/>
<path fill="#E4D487" opacity="1.000000" stroke="none" 
	d="
M452.223633,339.732819 
	C450.814209,338.043732 450.997955,336.031006 450.998047,334.042725 
	C451.000580,291.024933 450.997467,248.007141 451.008820,204.989349 
	C451.009277,203.182129 450.711151,201.316116 451.917969,199.246002 
	C456.690491,203.669098 460.316742,209.134018 463.167847,215.531158 
	C461.777466,238.965637 462.862518,262.079956 462.611969,285.181183 
	C462.478668,297.474030 462.308990,309.775879 463.037598,322.541687 
	C460.607971,329.225281 456.639191,334.460205 452.223633,339.732819 
z"/>
<path fill="#EADD8E" opacity="1.000000" stroke="none" 
	d="
M463.311768,322.805481 
	C461.290314,320.277405 460.994446,317.208313 460.995300,314.056091 
	C461.003357,283.675842 461.003632,253.295609 460.993134,222.915375 
	C460.992310,220.582413 460.835693,218.235809 462.921021,216.104599 
	C468.948914,224.492447 471.504974,234.279083 473.473999,244.193909 
	C478.875244,271.391571 476.246277,297.641571 463.311768,322.805481 
z"/>
<path fill="#B69452" opacity="1.000000" stroke="none" 
	d="
M598.684692,335.624603 
	C605.151123,334.585907 611.309692,334.098358 617.628723,332.209106 
	C619.372986,333.421997 619.505066,335.114563 619.522644,336.770691 
	C619.648010,348.570709 619.639709,360.371246 619.530823,372.171448 
	C619.518494,373.505249 619.336060,374.826904 618.333008,376.398254 
	C612.054260,378.102844 606.041016,378.971375 599.469116,378.806091 
	C597.637146,377.517914 597.503601,375.825684 597.484741,374.173492 
	C597.354065,362.726166 597.362976,351.278198 597.475952,339.830627 
	C597.489075,338.498535 597.685303,337.181976 598.684692,335.624603 
z"/>
<path fill="#B69452" opacity="1.000000" stroke="none" 
	d="
M617.437866,205.758514 
	C611.272766,205.041748 605.542725,204.090683 599.408691,203.051941 
	C597.780884,201.668106 597.484619,200.037292 597.466003,198.361206 
	C597.340759,187.098343 597.342712,175.835068 597.464966,164.572159 
	C597.479431,163.241364 597.691772,161.928864 598.702332,160.355103 
	C605.202454,159.534637 611.309448,160.305389 617.701904,161.705444 
	C619.294983,163.415268 619.536560,165.218506 619.547546,167.069901 
	C619.613403,178.198242 619.658569,189.326843 619.518738,200.454773 
	C619.495789,202.285095 619.325562,204.128998 617.437866,205.758514 
z"/>
<path fill="#DECC80" opacity="1.000000" stroke="none" 
	d="
M535.041016,359.520599 
	C536.099548,357.328003 536.013794,355.170868 536.011536,353.005524 
	C535.994385,336.754211 535.974426,320.502747 536.043945,304.251740 
	C536.051208,302.559784 535.188721,300.551880 537.495239,299.118256 
	C540.399231,304.281647 544.209778,308.615479 548.016663,313.330688 
	C549.020508,315.804016 549.635437,318.005157 549.633362,320.398865 
	C549.621460,334.038605 549.656921,347.678436 549.602234,361.318176 
	C549.594910,363.147766 549.549622,364.989319 548.229980,367.001587 
	C543.073242,365.806976 539.195068,362.726501 535.041016,359.520599 
z"/>
<path fill="#9B6F33" opacity="1.000000" stroke="none" 
	d="
M648.418945,320.837830 
	C656.741028,328.765411 664.560486,336.536346 672.516235,344.165161 
	C674.445679,346.015350 674.935486,347.057739 672.541870,349.068787 
	C665.067261,355.348724 657.291809,361.160400 648.448120,366.025696 
	C645.234802,365.658569 645.550903,363.257294 645.517639,361.450073 
	C645.297424,349.490509 645.302979,337.527496 645.507080,325.567413 
	C645.539734,323.656250 645.488586,321.442474 648.418945,320.837830 
z"/>
<path fill="#D2BB72" opacity="1.000000" stroke="none" 
	d="
M428.809082,293.197968 
	C432.109039,293.810669 430.940369,296.246429 430.948700,297.987061 
	C431.032898,315.558777 431.005707,333.131012 430.992706,350.703125 
	C430.991119,352.860138 430.895264,355.016327 431.919922,357.433594 
	C428.710144,360.984314 424.481476,362.611145 420.356079,364.997498 
	C417.942078,362.820435 418.512024,360.036133 418.460388,357.432861 
	C418.182922,343.452209 418.916840,329.460938 417.973755,315.052673 
	C417.779877,312.941589 418.024689,311.290009 418.986572,309.926453 
	C422.668243,304.707275 424.716034,298.561401 428.809082,293.197968 
z"/>
<path fill="#D2BB72" opacity="1.000000" stroke="none" 
	d="
M430.877625,179.543091 
	C431.044220,199.080170 431.050751,218.345551 430.953186,237.610367 
	C430.944031,239.421875 431.965393,241.701141 429.096710,243.021851 
	C427.993134,243.039551 427.318665,242.782181 427.028503,242.179550 
	C424.121887,236.142975 419.614044,230.918564 417.936462,223.828583 
	C418.999176,209.501587 418.170959,195.586945 418.451813,181.685852 
	C418.504883,179.059097 418.104340,176.365829 419.678009,173.518997 
	C423.837830,174.699799 427.239899,177.026627 430.877625,179.543091 
z"/>
<path fill="#B69452" opacity="1.000000" stroke="none" 
	d="
M385.307678,375.636963 
	C380.396149,377.556885 375.574158,377.309082 370.402832,377.571899 
	C368.771912,376.352875 368.534607,374.851562 368.519958,373.349274 
	C368.401306,361.193756 368.241302,349.037506 368.604187,336.883179 
	C368.624023,336.219208 368.847107,335.575745 369.306763,334.513245 
	C374.356293,331.505341 379.382416,330.829865 385.041473,332.704376 
	C385.640564,333.650787 385.583252,332.800568 385.654205,333.451752 
	C387.171753,347.381073 387.293518,361.310944 385.307678,375.636963 
z"/>
<path fill="#CBB26B" opacity="1.000000" stroke="none" 
	d="
M418.412659,312.573120 
	C419.856873,315.545044 420.048096,318.640747 420.031738,321.816254 
	C419.959106,335.908508 420.001190,350.001373 420.003326,364.566010 
	C416.530487,367.294403 412.740753,368.865906 408.455017,370.209534 
	C406.040619,368.246277 406.506897,365.645447 406.464935,363.221924 
	C406.253204,350.992981 406.762665,338.757996 406.124756,326.097992 
	C405.850830,323.576813 406.459961,321.808105 408.105621,320.455536 
	C411.360260,317.780670 414.391602,314.823181 418.412659,312.573120 
z"/>
<path fill="#BE9F5B" opacity="1.000000" stroke="none" 
	d="
M385.437225,376.076355 
	C384.989655,361.820282 384.965393,347.603973 384.907837,332.880737 
	C388.535828,329.203430 392.664917,327.785919 397.802917,329.348083 
	C399.261475,331.430023 399.495361,333.413696 399.517212,335.413910 
	C399.636902,346.368835 399.607574,357.324310 399.533813,368.279480 
	C399.523682,369.776154 399.406799,371.272308 398.381287,373.039124 
	C394.151825,374.718658 390.125549,375.974945 385.437225,376.076355 
z"/>
<path fill="#D8C47A" opacity="1.000000" stroke="none" 
	d="
M559.244019,214.639099 
	C555.730225,218.170578 552.297791,221.224579 548.564941,224.461288 
	C545.963135,223.247971 545.582703,220.884247 545.537170,218.570923 
	C545.256226,204.308228 545.365967,190.043137 545.465759,175.778839 
	C545.475159,174.432724 545.808472,173.151627 546.750000,171.551758 
	C550.288574,169.167023 553.668152,167.421280 557.660522,166.172394 
	C559.246826,167.226273 559.471313,168.735703 559.477112,170.232849 
	C559.533875,184.875992 559.867493,199.520554 559.244019,214.639099 
z"/>
<path fill="#CBB26B" opacity="1.000000" stroke="none" 
	d="
M419.643829,173.046509 
	C419.990417,188.051376 419.973236,202.941345 420.022644,217.831085 
	C420.030426,220.174850 419.858582,222.444229 418.878296,225.070572 
	C413.144348,224.271637 410.294800,220.016312 407.749298,214.897522 
	C407.158844,200.723328 407.511017,186.982254 407.471558,173.243057 
	C407.467285,171.749817 407.604736,170.261032 408.658508,168.549133 
	C412.852356,168.838577 415.904877,171.260559 419.643829,173.046509 
z"/>
<path fill="#DECC80" opacity="1.000000" stroke="none" 
	d="
M546.679016,171.202881 
	C547.007996,186.381805 547.027588,201.634827 546.975159,216.887589 
	C546.967102,219.239883 547.170654,221.506836 548.160400,224.168091 
	C545.401978,228.384872 542.539368,232.125748 539.376282,236.043335 
	C538.244446,233.512894 537.951843,230.764832 537.964539,227.914703 
	C538.039856,210.999893 538.007019,194.084579 538.018005,176.727142 
	C540.799011,174.615524 543.572571,172.946198 546.679016,171.202881 
z"/>
<path fill="#D2BB72" opacity="1.000000" stroke="none" 
	d="
M559.482544,215.012299 
	C557.380920,213.730530 558.032043,211.753235 558.026489,210.006683 
	C557.981140,195.684448 558.003235,181.362000 558.008972,166.581421 
	C560.942322,164.656082 564.017212,163.616684 567.616760,163.001953 
	C569.677490,164.584167 570.374084,166.601242 570.424988,168.807144 
	C570.706909,181.027130 570.676514,193.248505 570.441101,205.469040 
	C570.421997,206.463165 570.125366,207.423630 569.304321,208.688522 
	C566.165894,211.369766 562.397156,212.207153 559.482544,215.012299 
z"/>
<path fill="#D2BB72" opacity="1.000000" stroke="none" 
	d="
M569.286194,374.815796 
	C565.266846,375.078949 562.007080,373.499359 558.332275,372.069275 
	C556.261353,369.992554 556.429077,367.613464 556.420715,365.318054 
	C556.378540,353.753662 556.338013,342.188568 556.450439,330.624939 
	C556.474854,328.115540 555.861938,325.206940 559.312744,323.842102 
	C563.083252,325.808716 566.398804,327.578217 569.952698,329.600739 
	C570.973206,343.935486 570.603943,358.022369 570.367920,372.108276 
	C570.353943,372.942596 570.021118,373.724274 569.286194,374.815796 
z"/>
<path fill="#D8C47A" opacity="1.000000" stroke="none" 
	d="
M559.678650,323.725677 
	C557.061768,324.725586 558.049438,326.953583 558.041382,328.573944 
	C557.971191,342.704651 558.003052,356.835846 558.008240,371.425537 
	C554.471619,371.276367 551.496765,369.309204 548.089783,367.602112 
	C547.925781,349.786346 547.983215,332.217133 548.074341,314.145874 
	C551.935181,316.899963 555.762390,320.156036 559.678650,323.725677 
z"/>
<path fill="#A2783A" opacity="1.000000" stroke="none" 
	d="
M648.751160,320.740601 
	C647.755554,321.210266 647.032654,321.791443 647.049133,322.976685 
	C647.246460,337.144379 646.419556,351.322479 647.786499,365.771484 
	C644.914490,368.265167 641.292236,369.543732 637.372314,370.991760 
	C635.791565,369.907928 635.535767,368.420135 635.524719,366.927490 
	C635.418457,352.553345 635.241211,338.178772 635.759155,323.366638 
	C637.063843,321.943146 638.323792,321.089142 639.220032,319.949127 
	C642.645447,315.592010 645.714844,315.995422 648.751160,320.740601 
z"/>
<path fill="#A2783A" opacity="1.000000" stroke="none" 
	d="
M637.645264,168.330902 
	C641.217896,169.413712 644.435059,170.832031 647.875977,172.511444 
	C649.295105,176.000580 648.527161,179.333557 648.538513,182.607697 
	C648.578064,194.004440 648.673889,205.401962 648.433838,217.266037 
	C644.164856,222.840591 644.164856,222.840591 637.256836,216.946228 
	C635.624939,214.868835 635.437988,212.742126 635.435669,210.560532 
	C635.423889,199.305511 635.369812,188.050293 635.468933,176.795624 
	C635.493774,173.974121 635.719727,171.159760 637.645264,168.330902 
z"/>
<path fill="#CBB26B" opacity="1.000000" stroke="none" 
	d="
M569.240601,375.395081 
	C568.965454,362.050781 568.965027,348.932159 569.020569,335.813782 
	C569.028137,334.019104 568.594421,332.153442 569.864929,330.146057 
	C573.230896,330.883331 576.270691,331.912903 579.662354,333.073181 
	C581.292603,334.477234 581.502258,336.129303 581.518677,337.790649 
	C581.634521,349.518280 581.630432,361.246338 581.522461,372.974060 
	C581.510254,374.300262 581.320679,375.611542 580.347473,377.176453 
	C576.523560,376.902191 573.028320,376.261536 569.240601,375.395081 
z"/>
<path fill="#C5A963" opacity="1.000000" stroke="none" 
	d="
M578.698853,161.262238 
	C582.309326,159.794983 585.725525,159.310135 589.614868,159.354492 
	C591.368286,160.708038 591.508667,162.401642 591.526611,164.063248 
	C591.650574,175.559097 591.648193,187.055527 591.531067,198.551529 
	C591.517456,199.889740 591.316406,201.212036 590.331299,202.811371 
	C586.681519,203.921021 583.292725,204.610382 579.484802,205.344604 
	C577.671814,204.176331 577.485596,202.493698 577.463684,200.837906 
	C577.307678,189.057739 577.322144,177.276825 577.451965,165.496368 
	C577.466614,164.162811 577.691589,162.849976 578.698853,161.262238 
z"/>
<path fill="#A88142" opacity="1.000000" stroke="none" 
	d="
M635.636841,323.020264 
	C637.394287,326.767365 636.986511,330.769073 636.993042,334.727783 
	C637.012634,346.508087 637.000671,358.288452 637.001221,370.537933 
	C634.219910,372.847717 630.984009,373.514130 627.486206,374.582397 
	C625.533508,373.288391 625.467346,371.418579 625.449036,369.613251 
	C625.326782,357.543976 625.340759,345.474121 625.435425,333.404572 
	C625.447205,331.905182 625.648499,330.432770 626.749268,328.701416 
	C629.781250,326.557098 632.542053,324.834564 635.636841,323.020264 
z"/>
<path fill="#C5A963" opacity="1.000000" stroke="none" 
	d="
M398.574036,373.423309 
	C398.120972,361.109406 398.038818,348.740631 398.019226,336.371765 
	C398.015564,334.047028 397.956848,331.764374 396.996887,329.150269 
	C398.842438,325.024231 402.620422,324.449097 406.388428,323.314209 
	C407.931366,325.474823 408.026855,327.750397 408.021088,330.093781 
	C407.988953,343.149078 408.019928,356.204529 408.053040,369.748657 
	C405.262848,371.929443 402.148438,372.747101 398.574036,373.423309 
z"/>
<path fill="#CBB26B" opacity="1.000000" stroke="none" 
	d="
M578.560303,160.823914 
	C578.996704,175.356491 579.013062,189.868927 579.047607,204.885406 
	C575.965759,206.589798 572.865784,207.790161 569.397339,209.042648 
	C569.019226,196.962616 568.964172,184.830185 569.032227,172.698471 
	C569.049072,169.689575 568.831604,166.753036 568.011719,163.439301 
	C571.315491,161.977097 574.594543,160.780090 578.560303,160.823914 
z"/>
<path fill="#AE8949" opacity="1.000000" stroke="none" 
	d="
M617.273682,206.214905 
	C618.116760,204.197998 618.006226,202.200058 618.004456,200.204956 
	C617.993713,187.762131 618.003479,175.319290 618.013794,162.402771 
	C621.257812,161.936890 624.208923,163.243744 627.649902,164.116882 
	C629.437195,165.676575 629.546265,167.516357 629.560242,169.331863 
	C629.653198,181.376434 629.665771,193.421341 629.555786,205.465927 
	C629.542175,206.957184 629.360779,208.433624 628.210205,210.105530 
	C624.411804,209.113144 620.978149,207.775070 617.273682,206.214905 
z"/>
<path fill="#C5A963" opacity="1.000000" stroke="none" 
	d="
M580.423096,377.678345 
	C580.014832,363.065033 580.010803,348.587189 580.010498,333.656647 
	C583.105896,333.703583 586.197571,334.203247 589.645996,334.862915 
	C591.214539,336.328491 591.508667,337.959686 591.522705,339.637848 
	C591.619751,351.240723 591.676758,362.843933 591.493347,374.446594 
	C591.474854,375.614594 591.236511,376.752045 590.349243,378.168274 
	C586.874573,379.330627 583.906128,377.870056 580.423096,377.678345 
z"/>
<path fill="#A88142" opacity="1.000000" stroke="none" 
	d="
M628.064453,210.680359 
	C627.899597,195.356781 627.953735,180.262344 628.009521,164.717926 
	C631.170593,165.352219 634.329956,166.436508 637.744995,167.758102 
	C635.948120,183.892334 637.450500,199.862518 637.020630,216.238480 
	C634.111450,214.759277 631.197510,212.834381 628.064453,210.680359 
z"/>
<path fill="#AE8949" opacity="1.000000" stroke="none" 
	d="
M369.644836,333.772339 
	C369.990051,348.287964 369.989624,362.448944 369.985901,377.039001 
	C366.944824,377.582581 363.907074,377.697113 360.421997,377.715210 
	C359.982330,363.439056 359.990021,349.259399 359.994415,334.621277 
	C362.915619,331.688263 366.084076,332.261932 369.644836,333.772339 
z"/>
<path fill="#C5A963" opacity="1.000000" stroke="none" 
	d="
M408.664917,168.014969 
	C408.977234,183.910492 408.971283,199.624802 408.940948,215.826935 
	C404.490692,216.421631 401.828339,213.325317 398.895630,210.404922 
	C400.635681,208.603149 399.961548,206.642197 399.968445,204.903854 
	C400.019775,191.967453 399.992981,179.030762 399.986481,165.639572 
	C402.770416,166.067917 405.558563,166.950836 408.664917,168.014969 
z"/>
<path fill="#AE8949" opacity="1.000000" stroke="none" 
	d="
M626.684326,328.346863 
	C627.030090,343.383850 627.039734,358.488037 627.068298,374.110992 
	C624.313354,375.352966 621.539429,376.076202 618.390137,376.787933 
	C618.012268,362.212067 618.009827,347.647675 618.011169,332.626770 
	C620.792664,330.918213 623.570374,329.666168 626.684326,328.346863 
z"/>
<path fill="#BE9F5B" opacity="1.000000" stroke="none" 
	d="
M590.457947,378.650269 
	C590.013977,364.343048 590.007751,350.149750 590.002075,335.489655 
	C592.711609,335.059387 595.420410,335.095856 598.576843,335.199097 
	C599.020874,349.459412 599.017395,363.652954 599.018433,378.296997 
	C596.313843,378.753082 593.604797,378.758636 590.457947,378.650269 
z"/>
<path fill="#BE9F5B" opacity="1.000000" stroke="none" 
	d="
M590.515320,203.248901 
	C590.051270,188.926193 590.032166,174.620712 590.016724,159.880768 
	C592.773682,158.979492 595.522217,158.657501 598.611206,159.833466 
	C598.999268,173.979919 599.002075,188.006271 599.004822,202.498459 
	C596.323242,203.064911 593.641785,203.165527 590.515320,203.248901 
z"/>
<path fill="#AE8949" opacity="1.000000" stroke="none" 
	d="
M368.551178,160.966034 
	C368.996216,174.959396 368.994659,188.887711 368.981781,203.266876 
	C366.288208,206.219482 363.375092,205.691010 360.134460,203.991562 
	C359.911377,189.735184 359.955475,175.857803 359.998169,161.515411 
	C362.699371,161.000610 365.402008,160.950790 368.551178,160.966034 
z"/>
<path fill="#9B6F33" opacity="1.000000" stroke="none" 
	d="
M648.632996,217.573975 
	C647.888977,216.330017 647.089294,214.929688 647.078857,213.523483 
	C646.985718,200.988159 647.019043,188.451736 647.068054,175.915848 
	C647.071106,175.134552 647.519165,174.354980 647.929993,173.173553 
	C651.388306,174.581573 654.676819,176.390640 658.173950,178.481842 
	C657.172852,187.133484 657.136047,195.522659 658.005798,203.921265 
	C658.162170,205.431320 658.139160,206.882889 657.235962,208.663757 
	C654.327209,211.844238 651.635254,214.629547 648.632996,217.573975 
z"/>
<path fill="#EADD8E" opacity="1.000000" stroke="none" 
	d="
M224.259186,237.807465 
	C221.000595,243.158844 216.541992,246.753098 212.226089,250.622345 
	C211.089478,248.899384 210.480865,247.185089 210.457550,245.344360 
	C210.342819,236.286041 210.289749,227.227081 210.487885,218.169083 
	C210.513290,217.008331 210.759171,215.880173 211.653671,214.457367 
	C215.969101,213.969955 219.592728,215.811859 223.760925,216.561539 
	C226.684967,223.599884 226.075546,230.464417 224.259186,237.807465 
z"/>
<path fill="#95672C" opacity="1.000000" stroke="none" 
	d="
M657.332520,208.922928 
	C655.706360,201.172134 656.033020,193.216125 655.988037,185.273804 
	C655.975586,183.071960 656.054688,180.945572 658.035400,178.996918 
	C663.316956,181.795166 667.762878,185.450668 672.141418,189.226700 
	C674.234558,191.031754 674.543396,192.207321 672.374329,194.241394 
	C667.342773,198.959717 662.540894,203.922974 657.332520,208.922928 
z"/>
<path fill="#F8F09E" opacity="1.000000" stroke="none" 
	d="
M150.312195,229.787598 
	C147.588760,232.184830 144.394241,232.367859 141.303528,233.726089 
	C139.759232,232.680710 139.538239,231.183868 139.513885,229.685287 
	C139.362793,220.387772 139.309052,211.089401 139.543930,201.792267 
	C139.569183,200.792725 139.827423,199.821564 140.635010,198.556244 
	C143.742584,198.785706 146.527405,199.387131 149.692108,200.097473 
	C150.523224,200.697235 151.035553,201.243515 151.076111,201.880112 
	C151.660797,211.055649 152.462067,220.239319 150.312195,229.787598 
z"/>
<path fill="#CBB26B" opacity="1.000000" stroke="none" 
	d="
M211.596420,214.010101 
	C211.969299,225.871017 211.972885,237.678101 211.967590,250.000977 
	C209.720993,248.312302 207.483276,246.107880 205.087418,243.623413 
	C204.528290,242.624268 203.897293,241.941879 203.869156,241.127655 
	C203.545685,231.766617 202.748505,222.395264 204.617050,212.687119 
	C207.038162,212.860321 209.132645,213.408295 211.596420,214.010101 
z"/>
<path fill="#F8F09E" opacity="1.000000" stroke="none" 
	d="
M191.323975,281.514893 
	C191.587738,276.917358 191.999649,272.715546 192.677277,268.206970 
	C194.504852,269.153900 194.446014,271.062378 194.936829,273.210999 
	C194.990097,279.725220 195.817078,285.768707 195.431854,292.293274 
	C195.472305,298.233521 195.291000,303.725555 196.750000,309.122192 
	C197.461594,311.754333 196.748856,314.410614 196.143967,317.015717 
	C194.959457,322.117035 195.706207,327.308197 195.427658,332.890656 
	C195.413376,334.491058 195.170685,335.625031 194.970001,337.193359 
	C194.840485,338.181641 194.679504,338.723816 194.220184,339.603546 
	C193.631775,340.004303 193.269882,340.046204 192.635010,340.073364 
	C191.221039,340.355591 191.605560,342.246063 189.786194,341.943909 
	C187.194412,338.314972 187.449356,334.613251 188.102203,330.441833 
	C190.077545,325.360565 189.410370,320.448578 189.587006,315.185394 
	C189.190720,311.203003 190.093918,307.708008 190.003357,303.734039 
	C189.747055,299.496307 190.528458,295.788239 190.990601,291.622589 
	C190.700317,288.075897 191.802658,285.029877 191.323975,281.514893 
z"/>
<path fill="#E4D487" opacity="1.000000" stroke="none" 
	d="
M150.453857,230.148834 
	C150.040207,220.503830 150.035400,210.803543 150.051315,200.654816 
	C152.496628,200.724670 154.921249,201.242950 157.683563,201.929718 
	C159.689621,204.426758 159.697556,207.123795 159.551620,209.780838 
	C159.215988,215.891220 160.525970,222.083801 158.338837,228.492752 
	C155.636581,229.277176 153.249634,229.685364 150.453857,230.148834 
z"/>
<path fill="#C5A963" opacity="1.000000" stroke="none" 
	d="
M123.244003,245.350067 
	C121.241798,247.008926 121.116631,250.822586 117.271957,249.014694 
	C115.534203,246.538528 116.458496,244.014404 116.476425,241.594101 
	C116.546211,232.174225 116.192535,222.751465 116.755371,212.879669 
	C117.462891,209.384949 119.695114,207.261627 121.427444,204.466644 
	C123.651779,205.331512 124.267181,207.289536 124.343590,209.280197 
	C124.769859,220.385193 124.787437,231.494980 124.346619,242.601837 
	C124.313393,243.439041 123.863373,244.179657 123.244003,245.350067 
z"/>
<path fill="#E4D487" opacity="1.000000" stroke="none" 
	d="
M130.654083,196.456909 
	C132.413483,196.386246 133.842041,196.675491 135.627319,197.058868 
	C137.374985,198.571869 137.521667,200.393295 137.525162,202.213501 
	C137.545700,212.912018 137.720642,223.610992 137.433212,234.789276 
	C135.790619,236.372665 134.178940,237.475739 132.258804,238.662842 
	C130.171463,237.680862 129.648758,235.901779 129.609543,234.051102 
	C129.359772,222.266052 129.197433,210.479172 129.693741,198.695618 
	C129.721542,198.035446 130.022690,197.413345 130.654083,196.456909 
z"/>
<path fill="#D8C47A" opacity="1.000000" stroke="none" 
	d="
M130.662247,195.958527 
	C130.992340,208.095901 131.010101,220.094818 130.997009,232.093704 
	C130.994827,234.100510 130.958313,236.092972 131.897827,238.354645 
	C130.546112,239.841812 129.141891,240.936752 127.418610,242.124786 
	C125.267838,240.562347 125.481560,238.312317 125.474052,236.198380 
	C125.429962,223.784882 125.386925,211.371140 125.334946,198.501221 
	C125.940926,195.050186 127.725616,194.478500 130.662247,195.958527 
z"/>
<path fill="#F8F09E" opacity="1.000000" stroke="none" 
	d="
M158.344482,260.367737 
	C155.960297,261.175964 153.893417,261.610229 151.430939,262.057312 
	C150.242630,261.396942 149.735382,260.490051 149.713013,259.507996 
	C149.538376,251.843521 148.410049,244.145065 150.669128,236.114853 
	C152.909912,234.664551 154.992767,234.017578 157.628815,234.054993 
	C158.824966,234.762009 159.279465,235.703232 159.296600,236.696701 
	C159.430695,244.470490 160.443985,252.272202 158.344482,260.367737 
z"/>
<path fill="#CBB26B" opacity="1.000000" stroke="none" 
	d="
M124.998619,198.314438 
	C127.919403,198.694794 126.947891,200.916214 126.958382,202.530548 
	C127.042198,215.434769 127.022606,228.339630 127.067116,241.731110 
	C125.928963,243.368790 124.758385,244.519684 123.283264,245.720612 
	C122.985130,234.505997 122.956375,223.241135 123.026558,211.976883 
	C123.041260,209.618179 122.756844,207.368805 121.791229,204.699188 
	C122.241539,202.075348 123.530426,200.337540 124.998619,198.314438 
z"/>
<path fill="#EADD8E" opacity="1.000000" stroke="none" 
	d="
M137.712799,235.207184 
	C135.462540,234.033829 136.027054,232.056229 136.020401,230.312958 
	C135.979370,219.562866 135.997192,208.812561 135.989746,197.607666 
	C137.402557,197.447617 138.821091,197.742233 140.598709,198.110565 
	C140.966080,209.756943 140.974380,221.329590 140.969070,233.351608 
	C139.978073,234.248901 139.000687,234.696838 137.712799,235.207184 
z"/>
<path fill="#9B6F33" opacity="1.000000" stroke="none" 
	d="
M186.747833,208.662033 
	C192.286484,208.139816 193.465515,210.820007 193.084229,215.498352 
	C192.666306,220.626511 192.758713,225.828415 193.061081,230.972763 
	C193.296127,234.971268 192.027466,235.657333 188.719666,233.838486 
	C187.997559,233.441452 187.181900,233.214600 186.104706,232.736679 
	C183.760834,224.643890 183.049500,216.753784 186.747833,208.662033 
z"/>
<path fill="#B69452" opacity="1.000000" stroke="none" 
	d="
M116.584343,212.646774 
	C118.426155,215.383804 118.108932,218.598602 117.963303,221.726776 
	C117.554771,230.501907 119.064766,239.339325 117.046936,248.465698 
	C115.862022,248.644669 114.744011,248.419373 113.309006,248.055328 
	C111.759285,246.636383 111.512138,245.007477 111.514030,243.354492 
	C111.522308,236.145844 111.144707,228.932846 111.680168,221.257919 
	C113.193611,218.147003 114.744484,215.507736 116.584343,212.646774 
z"/>
<path fill="#C5A963" opacity="1.000000" stroke="none" 
	d="
M174.367493,229.132645 
	C172.291321,229.298462 170.532959,229.099960 168.400269,228.798599 
	C166.632263,227.473022 166.465332,225.773209 166.521454,224.137787 
	C166.741272,217.732346 165.533859,211.260742 167.690063,204.566101 
	C169.515915,204.487808 171.015488,204.771042 172.802887,205.211853 
	C177.286270,212.919357 175.595215,220.870453 174.367493,229.132645 
z"/>
<path fill="#A2783A" opacity="1.000000" stroke="none" 
	d="
M109.292000,246.895782 
	C105.078812,246.463715 101.208542,245.667892 96.877647,244.777359 
	C100.568756,238.700043 104.005135,233.042145 107.711533,227.186859 
	C109.826042,226.990479 110.195694,228.484726 110.259323,229.725388 
	C110.547218,235.338440 111.379448,240.989975 109.292000,246.895782 
z"/>
<path fill="#B69452" opacity="1.000000" stroke="none" 
	d="
M194.492706,334.187012 
	C194.161880,326.997986 194.100174,320.143433 195.115692,313.160004 
	C196.019897,306.942078 193.282150,300.465881 194.161133,293.516418 
	C194.684418,292.337372 195.322052,291.895264 196.482056,291.960876 
	C197.394302,303.320618 198.111389,314.561523 197.968079,325.833893 
	C197.936478,328.319397 197.961365,330.804596 196.908081,333.573578 
	C196.216980,334.588074 195.529175,334.679504 194.492706,334.187012 
z"/>
<path fill="#EADD8E" opacity="1.000000" stroke="none" 
	d="
M150.553772,235.756760 
	C150.954758,244.161545 150.985504,252.640427 151.025787,261.594696 
	C149.571640,262.656433 148.107925,263.242737 146.297150,263.812805 
	C144.889328,262.819977 144.535782,261.503479 144.566956,260.177216 
	C144.741348,252.754532 143.454224,245.277374 145.656616,237.532394 
	C147.166763,236.066177 148.676682,235.953430 150.553772,235.756760 
z"/>
<path fill="#D8C47A" opacity="1.000000" stroke="none" 
	d="
M145.621521,237.175842 
	C145.966751,245.730270 145.974640,254.312775 145.966309,263.345917 
	C144.555527,263.808105 143.160950,263.819702 141.358459,263.732574 
	C139.161743,261.744598 139.500504,259.345734 139.524231,257.095428 
	C139.581299,251.685486 139.161148,246.267944 139.844131,240.416092 
	C141.418381,238.439850 143.467850,238.046616 145.621521,237.175842 
z"/>
<path fill="#D8C47A" opacity="1.000000" stroke="none" 
	d="
M158.443756,228.900146 
	C158.017670,220.251846 158.011810,211.634705 158.013611,202.557877 
	C159.787674,203.238693 161.891174,202.586319 164.086105,203.366348 
	C164.309311,211.683243 165.379639,219.846375 163.364838,228.279327 
	C161.654236,228.731934 160.259109,228.831619 158.443756,228.900146 
z"/>
<path fill="#D2BB72" opacity="1.000000" stroke="none" 
	d="
M165.671417,234.250061 
	C167.406754,233.913071 168.807373,233.947556 170.618896,234.073120 
	C172.587463,235.738815 172.596893,237.786438 172.510773,239.743256 
	C172.243607,245.814117 173.441147,251.953812 171.367279,258.319641 
	C169.645340,258.806915 168.247040,258.930115 166.426025,259.041473 
	C164.792160,257.923920 164.479767,256.427368 164.520020,254.931122 
	C164.702179,248.158264 163.458344,241.324875 165.671417,234.250061 
z"/>
<path fill="#CBB26B" opacity="1.000000" stroke="none" 
	d="
M163.457764,228.716736 
	C163.391403,220.492462 162.111404,212.308289 164.064713,203.879196 
	C165.376846,203.701141 166.342361,203.847031 167.662109,204.098724 
	C168.014526,212.071548 168.012726,219.938522 168.018402,228.250626 
	C166.639328,228.730911 165.252747,228.766068 163.457764,228.716736 
z"/>
<path fill="#C5A963" opacity="1.000000" stroke="none" 
	d="
M171.455246,258.748291 
	C171.034012,250.814362 171.024399,242.945038 171.022293,234.619965 
	C172.463287,234.365738 173.896759,234.567245 175.667801,234.909241 
	C178.747116,242.614777 177.833847,250.286835 176.347427,258.326599 
	C174.634628,258.729095 173.250732,258.770996 171.455246,258.748291 
z"/>
<path fill="#F1E695" opacity="1.000000" stroke="none" 
	d="
M158.369507,260.765869 
	C158.018341,252.161423 158.009506,243.581192 158.005112,234.540054 
	C159.089066,233.612061 160.128998,232.974777 161.726990,233.404709 
	C163.099518,234.490585 163.447906,235.792313 163.418320,237.103058 
	C163.252655,244.443359 164.501465,251.835739 162.338379,259.485779 
	C160.921494,260.167053 159.816666,260.478546 158.369507,260.765869 
z"/>
<path fill="#E4D487" opacity="1.000000" stroke="none" 
	d="
M162.381897,259.887634 
	C162.024078,251.353531 162.021820,242.851547 162.041229,233.933228 
	C163.193604,233.100174 164.332748,233.048065 165.744110,233.658264 
	C166.005325,241.948105 166.004517,250.017639 166.003510,258.558380 
	C165.117844,260.071594 163.892776,259.867737 162.381897,259.887634 
z"/>
<path fill="#9B6F33" opacity="1.000000" stroke="none" 
	d="
M191.469757,256.576538 
	C192.926941,261.052917 190.948212,261.273468 187.358704,259.981079 
	C184.360855,253.002441 185.280838,246.042801 186.685104,238.723709 
	C191.240021,239.736771 194.615845,241.657715 192.766418,247.781158 
	C192.809204,248.720291 192.759277,248.924515 192.532227,249.743286 
	C191.997040,251.885773 192.196335,253.451370 191.983536,255.329376 
	C191.838654,255.876205 191.752365,256.086731 191.469757,256.576538 
z"/>
<path fill="#AE8949" opacity="1.000000" stroke="none" 
	d="
M109.173172,247.540619 
	C108.804161,240.699402 109.472046,234.123917 108.279510,227.283722 
	C109.034889,225.063416 110.088219,223.137329 111.392143,220.998749 
	C113.560684,222.036255 112.963074,224.008728 112.975975,225.740051 
	C113.028755,232.823563 112.996628,239.907700 112.993889,247.454102 
	C111.793762,247.884949 110.595505,247.853317 109.173172,247.540619 
z"/>
<path fill="#A2783A" opacity="1.000000" stroke="none" 
	d="
M186.866867,208.229874 
	C184.913422,214.150909 186.426910,220.178513 186.015121,226.080032 
	C185.888412,227.896149 185.941452,229.724792 185.856110,232.055847 
	C184.695618,232.221313 183.591171,231.878616 182.226410,231.308075 
	C179.188293,223.445694 180.192688,215.710785 181.691284,207.613953 
	C183.543472,207.533966 185.057449,207.811783 186.866867,208.229874 
z"/>
<path fill="#B69452" opacity="1.000000" stroke="none" 
	d="
M174.424683,229.639984 
	C173.503952,221.775101 174.942688,213.972122 173.096130,205.836304 
	C174.470062,205.604660 175.849426,205.839890 177.623352,206.217224 
	C180.059250,208.586731 179.606857,211.377396 179.518936,213.971222 
	C179.345444,219.090469 180.387054,224.289978 178.317688,229.681625 
	C176.924469,229.956650 175.862076,229.869827 174.424683,229.639984 
z"/>
<path fill="#AE8949" opacity="1.000000" stroke="none" 
	d="
M178.266510,230.251831 
	C177.994965,222.444138 178.003082,214.844803 178.014557,206.802399 
	C179.139297,206.575378 180.260681,206.791428 181.705780,207.131805 
	C182.015045,214.881393 182.000580,222.506653 181.976105,230.606079 
	C180.826126,230.873550 179.686157,230.666870 178.266510,230.251831 
z"/>
<path fill="#CBB26B" opacity="1.000000" stroke="none" 
	d="
M139.645844,239.983765 
	C142.191406,243.962708 140.626526,248.277084 140.943329,252.431274 
	C141.204346,255.854279 140.982727,259.314087 140.962769,263.195740 
	C139.890305,263.708771 138.830093,263.783661 137.376190,263.787842 
	C134.223358,256.750641 135.126144,249.686142 136.672424,242.190765 
	C137.544800,240.928787 138.162048,240.086990 139.645844,239.983765 
z"/>
<path fill="#B69452" opacity="1.000000" stroke="none" 
	d="
M204.591339,212.198303 
	C204.959274,222.325958 204.974869,232.339584 204.959869,242.848267 
	C203.680801,242.453735 202.432312,241.564117 201.014404,240.393372 
	C200.586136,230.934616 199.682877,221.744568 201.704803,212.256699 
	C202.769318,211.967316 203.504150,212.025787 204.591339,212.198303 
z"/>
<path fill="#BE9F5B" opacity="1.000000" stroke="none" 
	d="
M176.410889,258.782806 
	C176.012299,251.117767 176.006104,243.548340 176.002625,235.514328 
	C177.118317,235.323715 178.231262,235.597702 179.680969,235.986542 
	C182.752670,243.367035 181.853943,250.737183 180.335938,258.491333 
	C178.948334,258.870544 177.875793,258.874481 176.410889,258.782806 
z"/>
<path fill="#AE8949" opacity="1.000000" stroke="none" 
	d="
M180.407913,258.947174 
	C180.014557,251.585648 180.008255,244.304672 180.009827,236.562561 
	C181.146530,236.374649 182.275360,236.647858 183.715637,237.088593 
	C186.638733,244.250702 185.727875,251.344772 184.284515,258.802032 
	C182.893921,259.115784 181.844437,259.071747 180.407913,258.947174 
z"/>
<path fill="#A2783A" opacity="1.000000" stroke="none" 
	d="
M125.299088,266.582794 
	C122.736855,268.532990 120.476128,270.073944 117.357651,272.199524 
	C119.345863,264.717499 119.590347,257.633026 124.557114,251.732239 
	C127.757515,256.275848 126.859100,261.215454 125.299088,266.582794 
z"/>
<path fill="#A88142" opacity="1.000000" stroke="none" 
	d="
M201.776764,211.709137 
	C201.646973,221.115097 202.695114,230.349609 201.167694,239.826004 
	C199.605789,240.261276 198.907059,239.443161 198.045456,238.357101 
	C197.501419,229.320541 196.792206,220.556976 198.654922,211.483688 
	C199.823959,211.260345 200.671524,211.384888 201.776764,211.709137 
z"/>
<path fill="#C5A963" opacity="1.000000" stroke="none" 
	d="
M136.604614,241.862289 
	C136.948715,248.788040 136.970093,255.805756 136.986984,263.270325 
	C135.938797,263.875305 134.895096,264.033508 133.455322,264.171692 
	C130.037598,258.235870 131.837479,251.969131 131.852737,245.390778 
	C133.413177,243.944839 134.847534,242.949554 136.604614,241.862289 
z"/>
<path fill="#95672C" opacity="1.000000" stroke="none" 
	d="
M198.637604,211.009430 
	C198.745773,219.922684 199.590881,228.728287 198.202850,237.789551 
	C196.528503,237.870163 195.936920,237.049713 195.937775,235.704254 
	C195.942642,227.987640 195.964417,220.270828 195.913406,212.554535 
	C195.900955,210.671066 196.638702,210.206619 198.637604,211.009430 
z"/>
<path fill="#D8C47A" opacity="1.000000" stroke="none" 
	d="
M224.342911,238.085526 
	C224.044998,231.435608 224.030380,224.605560 224.030029,217.288208 
	C225.192535,216.928818 226.340790,217.056747 227.790100,217.356079 
	C230.502274,222.256927 229.345947,227.251648 229.157990,232.637939 
	C227.632568,234.703903 226.129395,236.304642 224.342911,238.085526 
z"/>
<path fill="#B69452" opacity="1.000000" stroke="none" 
	d="
M131.681732,245.053360 
	C134.137238,250.920303 132.476974,257.119537 133.042542,263.671844 
	C131.935898,264.471649 130.812531,264.791656 129.341232,265.016754 
	C126.440132,259.371796 127.061714,253.730484 128.786377,247.670685 
	C129.837326,246.572784 130.610977,245.869690 131.681732,245.053360 
z"/>
<path fill="#AE8949" opacity="1.000000" stroke="none" 
	d="
M128.777252,247.387665 
	C129.042526,252.849808 129.021393,258.423737 128.996796,264.459778 
	C127.881340,265.602814 126.769386,266.283752 125.327499,266.978394 
	C124.978310,262.172058 124.959053,257.352051 124.895012,252.031647 
	C126.063774,250.187332 127.277313,248.843384 128.777252,247.387665 
z"/>
<path fill="#BE9F5B" opacity="1.000000" stroke="none" 
	d="
M196.405426,248.184967 
	C196.050095,246.525970 196.050095,245.066544 196.050095,243.535217 
	C197.891068,243.004120 198.519531,244.699799 199.836029,245.685089 
	C202.263153,251.826584 201.722397,257.774414 200.305817,264.111023 
	C198.576965,263.820587 197.191254,263.160278 195.414673,262.534790 
	C197.267395,258.045074 197.797882,253.310791 196.405426,248.184967 
z"/>
<path fill="#A2783A" opacity="1.000000" stroke="none" 
	d="
M184.202911,259.353760 
	C183.968658,252.159134 183.993912,245.158432 184.023148,237.706940 
	C184.842056,237.509125 185.656982,237.762115 186.743820,238.192108 
	C187.012131,245.223648 187.008560,252.078201 187.007324,259.391113 
	C186.160583,259.748901 185.311508,259.648285 184.202911,259.353760 
z"/>
<path fill="#C5A963" opacity="1.000000" stroke="none" 
	d="
M196.836761,291.614594 
	C196.095093,292.382477 195.426270,292.688660 194.488129,293.027466 
	C194.135284,286.685547 194.051758,280.310974 193.983856,273.468201 
	C194.113022,272.859039 194.226547,272.718048 194.603821,272.511200 
	C195.043884,272.487366 195.220184,272.529358 195.573212,272.777954 
	C196.136505,279.040680 196.523071,285.096771 196.836761,291.614594 
z"/>
<path fill="#AE8949" opacity="1.000000" stroke="none" 
	d="
M189.309601,329.799042 
	C189.484146,333.921021 188.988220,337.585266 190.242188,341.496460 
	C190.471268,342.883087 190.240707,343.797394 189.647675,344.999573 
	C186.709641,346.059570 185.989670,344.480560 186.131699,342.104889 
	C186.407349,337.493958 186.740891,332.886475 187.143005,327.885132 
	C188.603897,327.298828 189.233429,328.024933 189.309601,329.799042 
z"/>
<path fill="#CBB26B" opacity="1.000000" stroke="none" 
	d="
M229.380859,232.971710 
	C226.675812,228.408340 228.544083,223.386383 228.063278,218.035767 
	C228.828461,217.658173 229.565735,217.788864 230.661652,218.024399 
	C233.347885,221.891830 232.867432,225.767410 231.287170,230.140991 
	C231.125519,231.691238 230.236176,232.174469 229.380859,232.971710 
z"/>
<path fill="#B69452" opacity="1.000000" stroke="none" 
	d="
M189.430878,330.014221 
	C188.778702,329.546936 188.385468,328.764526 187.613922,327.737427 
	C187.511383,323.643036 187.787170,319.793365 188.134979,315.490570 
	C188.753616,314.417542 189.425110,314.347198 190.402176,314.868713 
	C191.100250,320.047394 191.067245,324.916931 189.430878,330.014221 
z"/>
<path fill="#F1E695" opacity="1.000000" stroke="none" 
	d="
M201.767212,248.211105 
	C203.001801,248.689117 203.920792,249.505875 204.989365,250.594025 
	C205.179855,256.030334 206.112656,261.224274 204.320221,266.676453 
	C203.103134,266.543884 202.200668,266.074554 201.108353,265.366211 
	C201.342484,259.609344 200.438583,254.048767 201.767212,248.211105 
z"/>
<path fill="#CBB26B" opacity="1.000000" stroke="none" 
	d="
M208.650345,267.434174 
	C208.471832,269.214111 208.998947,271.831055 206.171310,269.194031 
	C204.121597,263.569611 205.068039,258.093933 205.707489,252.264557 
	C206.675827,252.567245 207.336319,253.247406 208.025818,254.216232 
	C210.255508,258.589844 209.076035,262.804596 208.650345,267.434174 
z"/>
<path fill="#D8C47A" opacity="1.000000" stroke="none" 
	d="
M201.944855,247.619507 
	C201.621552,253.411713 202.605713,258.999268 201.222961,264.822632 
	C200.652908,265.068329 200.408112,264.961761 200.073380,264.644165 
	C199.976471,258.626251 199.990280,252.771606 200.011719,246.447205 
	C200.615189,246.440521 201.211044,246.903580 201.944855,247.619507 
z"/>
<path fill="#E4D487" opacity="1.000000" stroke="none" 
	d="
M205.947037,251.660828 
	C206.016296,257.261597 206.017288,262.636139 206.024750,268.472656 
	C205.437332,268.468292 204.843445,268.001984 204.127579,267.274445 
	C204.320038,261.835999 203.440079,256.619720 204.826355,251.166367 
	C205.450226,250.971100 205.696823,251.160828 205.947037,251.660828 
z"/>
<path fill="#A88142" opacity="1.000000" stroke="none" 
	d="
M233.656250,219.354248 
	C236.208130,219.469315 238.351242,220.288116 240.945801,219.988022 
	C239.728073,223.466949 236.389008,224.668304 234.480728,227.511505 
	C231.890045,225.280869 232.279755,222.554047 233.656250,219.354248 
z"/>
<path fill="#BE9F5B" opacity="1.000000" stroke="none" 
	d="
M233.774902,218.727295 
	C234.034256,221.537369 234.062622,224.123199 234.137253,227.210480 
	C233.358627,228.615417 232.533722,229.518906 231.399078,230.512558 
	C231.059860,226.749542 231.030350,222.896393 231.010559,218.586243 
	C231.861481,218.253845 232.702682,218.378464 233.774902,218.727295 
z"/>
<path fill="#CBB26B" opacity="1.000000" stroke="none" 
	d="
M190.761475,314.684082 
	C190.031433,315.108673 189.426682,315.071808 188.514465,315.036194 
	C187.613541,311.246857 189.050476,307.612427 189.138611,303.448273 
	C189.534760,302.667328 189.937027,302.516785 190.677841,302.802460 
	C190.920792,306.759979 190.903778,310.491333 190.761475,314.684082 
z"/>
<path fill="#AE8949" opacity="1.000000" stroke="none" 
	d="
M208.878815,267.506042 
	C207.121582,263.835754 208.350677,259.623444 208.034882,255.005554 
	C213.173294,258.359802 209.863022,262.839600 208.878815,267.506042 
z"/>
<path fill="#D2BB72" opacity="1.000000" stroke="none" 
	d="
M195.260712,272.720459 
	C194.907150,272.995453 194.725632,272.999420 194.271820,273.001709 
	C193.192642,271.659424 193.024063,270.180359 193.000061,268.278870 
	C192.966049,267.478943 192.989120,267.057648 193.061157,266.322906 
	C193.984222,264.003540 193.245499,261.873779 193.818787,259.511475 
	C195.404343,259.658600 194.902313,260.839172 195.036499,262.168945 
	C195.023773,262.569580 195.059631,262.570221 195.037903,262.563599 
	C195.266571,264.519806 195.516953,266.482666 195.673401,268.850464 
	C195.400543,270.314148 195.544968,271.387695 195.260712,272.720459 
z"/>
<path fill="#D8C47A" opacity="1.000000" stroke="none" 
	d="
M190.973831,302.579895 
	C190.554047,303.026489 190.170273,303.024292 189.498810,303.024994 
	C188.603439,299.245972 190.279373,295.651886 190.199982,291.483459 
	C190.577271,290.690796 190.965576,290.536865 191.670563,290.843933 
	C191.185699,294.736359 190.840256,298.412903 190.973831,302.579895 
z"/>
<path fill="#D2BB72" opacity="1.000000" stroke="none" 
	d="
M191.730042,256.837250 
	C191.036087,256.753815 190.926041,256.573883 190.999390,256.156921 
	C192.046158,253.946777 191.222015,251.746323 191.775238,249.288925 
	C191.971985,248.934814 191.987396,249.000122 191.957443,248.985001 
	C192.197525,248.835724 192.467575,248.701553 193.185150,248.635132 
	C195.938782,250.992889 194.926331,253.684311 194.276169,256.655701 
	C193.396103,256.948120 192.791367,256.883423 191.730042,256.837250 
z"/>
<path fill="#EADD8E" opacity="1.000000" stroke="none" 
	d="
M191.936615,290.636963 
	C191.539886,291.076691 191.177734,291.063568 190.544830,291.055054 
	C189.490799,287.927521 191.284897,285.018280 191.119431,281.526947 
	C192.876389,284.014862 191.624374,287.169647 191.936615,290.636963 
z"/>
<path fill="#EADD8E" opacity="1.000000" stroke="none" 
	d="
M194.163544,257.176697 
	C193.825577,254.499649 194.449356,251.941986 193.280365,249.191254 
	C192.879425,248.751221 192.778595,248.587402 192.814804,248.169632 
	C192.951859,247.915695 192.876282,247.953705 192.847595,247.923248 
	C193.626526,247.938187 194.434158,247.983597 195.645935,248.007202 
	C196.050095,247.985397 195.999435,247.999756 196.010162,247.975403 
	C195.984558,248.143188 195.948212,248.335327 195.870193,248.817810 
	C195.129623,251.172470 195.598526,253.290527 195.723907,255.684509 
	C195.838852,256.971039 195.275665,257.381165 194.163544,257.176697 
z"/>
<path fill="#EADD8E" opacity="1.000000" stroke="none" 
	d="
M189.906006,345.285095 
	C189.217255,344.328613 189.049652,343.321777 190.029968,342.126404 
	C190.824890,341.325134 191.305298,340.758820 192.073883,340.125549 
	C191.457886,341.697906 193.124893,344.381744 189.906006,345.285095 
z"/>
<path fill="#C5A963" opacity="1.000000" stroke="none" 
	d="
M194.126404,334.334534 
	C194.860107,333.950256 195.499924,333.965546 196.462402,333.978027 
	C196.532211,335.086700 196.279373,336.198212 195.930908,337.643555 
	C195.481720,338.327759 195.053406,338.472076 194.280518,338.219910 
	C194.010849,336.911377 194.021698,335.822784 194.126404,334.334534 
z"/>
<path fill="#AE8949" opacity="1.000000" stroke="none" 
	d="
M195.947327,255.553848 
	C194.251389,254.000107 195.129349,251.769165 195.558502,249.358124 
	C195.881180,251.113098 195.933853,253.118027 195.947327,255.553848 
z"/>
<path fill="#E4D487" opacity="1.000000" stroke="none" 
	d="
M193.727722,259.401428 
	C193.911774,261.280365 193.770828,263.364594 193.370010,265.729126 
	C192.937927,263.862885 192.739349,261.715088 193.727722,259.401428 
z"/>
<path fill="#BE9F5B" opacity="1.000000" stroke="none" 
	d="
M195.253937,272.987823 
	C195.141449,271.922699 195.194244,270.853973 195.413239,269.520325 
	C195.672775,270.249176 195.766083,271.242950 195.804657,272.610626 
	C195.749924,272.984558 195.419235,272.984192 195.253937,272.987823 
z"/>
<path fill="#D2BB72" opacity="1.000000" stroke="none" 
	d="
M193.976852,338.326904 
	C194.408371,337.996948 194.816727,337.993927 195.530182,337.984131 
	C195.825806,338.876465 195.256516,339.405487 194.289780,339.914978 
	C193.980347,339.526215 193.967026,339.090027 193.976852,338.326904 
z"/>
<path fill="#FFFFFF" opacity="1.000000" stroke="none" 
	d="
M359.515503,203.663834 
	C362.616119,203.684906 365.364960,203.757263 368.542114,203.773666 
	C379.034790,204.271179 388.862793,205.932404 398.558289,209.990295 
	C402.038116,212.040039 405.147705,214.049896 408.586945,216.187256 
	C412.013641,219.254486 415.110687,222.194214 418.500366,225.325027 
	C422.433136,230.942612 425.622864,236.618210 428.462433,242.861877 
	C431.116241,252.638916 432.533600,262.247772 432.232239,272.145233 
	C432.023224,279.010040 431.044647,285.669830 429.160248,292.624390 
	C426.358185,299.629456 423.429840,306.178894 418.913879,312.232758 
	C414.910126,315.983612 411.008453,319.433105 406.930115,323.130127 
	C403.638153,325.000336 400.522766,326.622986 397.174011,328.481232 
	C393.132324,329.844666 389.324066,330.972504 385.195190,332.237061 
	C380.199463,332.902252 375.524414,333.430725 370.419922,334.043060 
	C366.957245,334.091522 363.924011,334.056122 360.440948,334.091736 
	C356.382812,334.103210 357.423737,331.370483 357.419342,329.446930 
	C357.371155,308.464020 357.389130,287.480957 357.389130,266.497955 
	C357.389130,247.013733 357.355927,227.529358 357.455414,208.045639 
	C357.462952,206.566925 356.070984,204.133530 359.515503,203.663834 
z"/>
<path fill="#FFFFFF" opacity="1.000000" stroke="none" 
	d="
M191.605255,249.119156 
	C191.892532,251.141647 191.813080,253.348495 191.394562,255.776611 
	C191.116501,253.766418 191.177521,251.534958 191.605255,249.119156 
z"/>
<path fill="#FFFFFF" opacity="1.000000" stroke="none" 
	d="
M192.601074,247.792084 
	C192.963089,248.082275 192.974319,248.248871 192.982910,248.665253 
	C192.806442,248.955948 192.632645,248.996841 192.193161,249.003815 
	C192.035080,248.536072 192.142685,248.102264 192.601074,247.792084 
z"/>
</svg>